name C:\Users\antoi\Documents\MyRepositories\upper-imu-dc\Results\main_tracking\Case_77\kinematics.mot
datacolumns 10
datarows 23
range 0.50000000 0.72000000
endheader 
time	clav_prot	clav_elev	scapula_abduction	scapula_elevation	scapula_upward_rot	scapula_winging	plane_elv	shoulder_elv	axial_rot	
          0.50000000	        -24.24809434	         -5.13795176	        -15.32054420	         -4.75691475	         12.85119984	          5.74513247	        -42.03648492	         11.24834210	         60.80480992	
          0.51000000	        -24.34224689	         -5.15157963	        -15.42196298	         -4.75079729	         12.83807184	          5.74841089	        -42.00040447	         11.26976184	         60.86985867	
          0.52000000	        -24.31005654	         -5.15053936	        -15.37430126	         -4.74465030	         12.82542925	          5.75146237	        -41.96358211	         11.29212288	         60.93484896	
          0.53000000	        -24.27767262	         -5.14991022	        -15.32653308	         -4.73865457	         12.81220172	          5.75477395	        -41.92500671	         11.31396426	         60.99909527	
          0.54000000	        -24.24491202	         -5.14989605	        -15.27849876	         -4.73286193	         12.79803355	          5.75850560	        -41.88284207	         11.33501227	         61.06122655	
          0.55000000	        -24.21159302	         -5.15059329	        -15.23000066	         -4.72727199	         12.78268451	          5.76275006	        -41.83451365	         11.35536215	         61.11895274	
          0.56000000	        -24.17751654	         -5.15210127	        -15.18081465	         -4.72188341	         12.76590666	          5.76760227	        -41.77673169	         11.37526344	         61.16898906	
          0.57000000	        -24.14246763	         -5.15455174	        -15.13069869	         -4.71671077	         12.74742146	          5.77317524	        -41.70553890	         11.39505791	         61.20709398	
          0.58000000	        -24.10622406	         -5.15811888	        -15.07940072	         -4.71179464	         12.72692707	          5.77960161	        -41.61638594	         11.41515977	         61.22818551	
          0.59000000	        -24.06856726	         -5.16302147	        -15.02666678	         -4.70720865	         12.70411607	          5.78702990	        -41.50423581	         11.43604256	         61.22652473	
          0.60000000	        -24.02929507	         -5.16952066	        -14.97225056	         -4.70306437	         12.67869773	          5.79561814	        -41.36369809	         11.45822208	         61.19596214	
          0.61000000	        -23.98823584	         -5.17791307	        -14.91592572	         -4.69951322	         12.65042179	          5.80552556	        -41.18918970	         11.48223235	         61.13023688	
          0.62000000	        -23.94526359	         -5.18852005	        -14.85750082	         -4.69674546	         12.61910257	          5.81690308	        -40.97511201	         11.50859574	         61.02329895	
          0.63000000	        -23.90031340	         -5.20167413	        -14.79683652	         -4.69498672	         12.58464140	          5.82988335	        -40.71602793	         11.53779167	         60.86960623	
          0.64000000	        -23.85339635	         -5.21770406	        -14.73386472	         -4.69449231	         12.54704487	          5.84457161	        -40.40682370	         11.57022938	         60.66435240	
          0.65000000	        -23.80461268	         -5.23691966	        -14.66860847	         -4.69553953	         12.50643680	          5.86103827	        -40.04284601	         11.60622805	         60.40360534	
          0.66000000	        -23.75416191	         -5.25959757	        -14.60120040	         -4.69841891	         12.46306363	          5.87931360	        -39.62001072	         11.64600582	         60.08435575	
          0.67000000	        -23.70234857	         -5.28596872	        -14.53189651	         -4.70342477	         12.41729369	          5.89938479	        -39.13488227	         11.68967843	         59.70448116	
          0.68000000	        -23.64958182	         -5.31620759	        -14.46108237	         -4.71084531	         12.36961098	          5.92119504	        -38.58472402	         11.73726823	         59.26263477	
          0.69000000	        -23.59636820	         -5.35042318	        -14.38926948	         -4.72095243	         12.32060438	          5.94464429	        -37.96752158	         11.78872273	         58.75808157	
          0.70000000	        -23.54329719	         -5.38865181	        -14.31708066	         -4.73399152	         12.27095347	          5.96959120	        -37.28198255	         11.84393960	         58.19052183	
          0.71000000	        -23.49102098	         -5.43085239	        -14.24522609	         -4.75017207	         12.22141159	          5.99585621	        -36.52751518	         11.90279353	         57.55994101	
          0.72000000	        -23.44023043	         -5.47690596	        -14.17447330	         -4.76966049	         12.17278626	          6.02322635	        -35.70418751	         11.96516284	         56.86650340	
